<?xml version="1.0" encoding="UTF-8" standalone="no"?><!-- Generator: Gravit.io --><svg xmlns="http://www.w3.org/2000/svg" xmlns:xlink="http://www.w3.org/1999/xlink" style="isolation:isolate" viewBox="0 0 150 150" width="150pt" height="150pt"><defs><clipPath id="_clipPath_5Ed2Ejz5grXirzbEKerD66qJLJpRMFhv"><rect width="150" height="150"/></clipPath></defs><g clip-path="url(#_clipPath_5Ed2Ejz5grXirzbEKerD66qJLJpRMFhv)"><g><path d=" M 47.029 73.61 C 47.029 58.172 59.562 45.639 75 45.639 C 90.438 45.639 102.971 58.172 102.971 73.61 C 102.971 89.047 90.438 101.581 75 101.581 C 59.562 101.581 47.029 89.047 47.029 73.61 Z " fill="rgb(236,236,236)"/><mask id="_mask_CyUmbYsXt8iA1wLzv6mF9OETcUfnvNW2" x="-200%" y="-200%" width="400%" height="400%"><rect x="-200%" y="-200%" width="400%" height="400%" style="fill:white;"/><path d=" M 75 12.87 L 75 34.812 M 29.083 32.189 L 44.598 47.704 M 105.402 101.581 L 120.918 117.096 M 14.897 74.165 L 36.84 74.165 M 113.16 74.165 L 135.103 74.165 M 105.402 47.704 L 120.918 32.189 M 29.082 117.096 L 44.598 101.581 M 75 137.13 L 75 115.188" fill-rule="evenodd" fill="black" stroke="none"/></mask><path d=" M 75 12.87 L 75 34.812 M 29.083 32.189 L 44.598 47.704 M 105.402 101.581 L 120.918 117.096 M 14.897 74.165 L 36.84 74.165 M 113.16 74.165 L 135.103 74.165 M 105.402 47.704 L 120.918 32.189 M 29.082 117.096 L 44.598 101.581 M 75 137.13 L 75 115.188" fill-rule="evenodd" fill="rgb(236,236,236)"/><path d=" M 75 12.87 L 75 34.812 M 29.083 32.189 L 44.598 47.704 M 105.402 101.581 L 120.918 117.096 M 14.897 74.165 L 36.84 74.165 M 113.16 74.165 L 135.103 74.165 M 105.402 47.704 L 120.918 32.189 M 29.082 117.096 L 44.598 101.581 M 75 137.13 L 75 115.188" fill-rule="evenodd" fill="rgb(236,236,236)" mask="url(#_mask_CyUmbYsXt8iA1wLzv6mF9OETcUfnvNW2)" vector-effect="non-scaling-stroke" stroke-width="2" stroke="rgb(236,236,236)" stroke-linejoin="round" stroke-linecap="round" stroke-miterlimit="3"/></g></g></svg>